<svg id="Calque_1" data-name="Calque 1" xmlns="http://www.w3.org/2000/svg" viewBox="0 0 663 254"><defs><style>.cls-1{fill:#53c7f6;}.cls-2{fill:#0070ad;}.cls-3{fill:none;}</style></defs><path class="cls-1" d="M70.82,323.81,65.4,311.2H38.83l-5.42,12.61H20.88L47,267H57l26.09,56.81ZM43,301.71H61.33L52.16,280.4Z" transform="translate(-20.61 -210.55)"/><path class="cls-1" d="M88,267h21.94a35.59,35.59,0,0,1,16,3.35,23.47,23.47,0,0,1,10.25,9.73,30.88,30.88,0,0,1,3.55,15.24,31.33,31.33,0,0,1-3.51,15.32A23.44,23.44,0,0,1,126,320.42a35.37,35.37,0,0,1-16.12,3.39H88Zm21.14,46.75q18.19,0,18.19-18.43,0-18.27-18.19-18.27h-8.69v36.7Z" transform="translate(-20.61 -210.55)"/><path class="cls-1" d="M149.49,323.81V267h12.45v46.67h25.37v10.14Z" transform="translate(-20.61 -210.55)"/><path class="cls-1" d="M194.89,323.81V267h39.17v9.65H207v13.41h25.37v9.73H207v14.36h27v9.66Z" transform="translate(-20.61 -210.55)"/><path class="cls-1" d="M285.29,323.81l-5.43-12.61H253.29l-5.42,12.61H235.34L261.43,267h10.05l26.1,56.81Zm-27.85-22.1h18.35l-9.17-21.31Z" transform="translate(-20.61 -210.55)"/><path class="cls-1" d="M302.44,267h21.94a35.59,35.59,0,0,1,16,3.35,23.42,23.42,0,0,1,10.25,9.73,30.88,30.88,0,0,1,3.55,15.24,31.33,31.33,0,0,1-3.51,15.32,23.38,23.38,0,0,1-10.21,9.78,35.37,35.37,0,0,1-16.12,3.39H302.44Zm21.15,46.75q18.18,0,18.19-18.43,0-18.27-18.19-18.27h-8.7v36.7Z" transform="translate(-20.61 -210.55)"/><path class="cls-2" d="M430.24,267.92h9.56v55.35H429.08V293l-12.75,30.24h-7.85l-12.83-29.86v29.86H385V267.92h9.64l17.88,40.81Z" transform="translate(-20.61 -210.55)"/><path class="cls-2" d="M451,323.27V267.92h38.17v9.4H462.81v13.06h24.72v9.49H462.81v14h26.36v9.41Z" transform="translate(-20.61 -210.55)"/><path class="cls-2" d="M497.56,267.92h21.38a34.66,34.66,0,0,1,15.62,3.26,22.76,22.76,0,0,1,10,9.49A30,30,0,0,1,548,295.52a30.54,30.54,0,0,1-3.42,14.92,22.74,22.74,0,0,1-10,9.52,34.47,34.47,0,0,1-15.7,3.31H497.56Zm20.6,45.55q17.73,0,17.73-18t-17.73-17.81h-8.47v35.76Z" transform="translate(-20.61 -210.55)"/><path class="cls-2" d="M557.5,323.27V267.92h12.12v55.35Z" transform="translate(-20.61 -210.55)"/><path class="cls-2" d="M623,323.27,617.74,311H591.86l-5.29,12.29H574.36l25.43-55.35h9.79L635,323.27ZM595.9,301.73h17.88L604.84,281Z" transform="translate(-20.61 -210.55)"/><rect class="cls-3" width="663" height="254"/></svg>